# xmcd CD database file
#
# Track frame offsets:
#	150
#	9855
#	19853
#	31810
#	41946
#	52935
#	65251
#	82090
#	93335
#	104369
#	113342
#	124405
#	136822
#	147033
#	159191
#	173534
#	186019
#	199926
#	212253
#	225865
#	237357
#	247523
#	259477
#	270329
#	283200
#	295602
#	309072
#	326176
#	337465
#
# Disc length: 4729 seconds
#
# Revision: 2
# Processed by: cddbd v1.5.2PL0 Copyright (c) Steve Scherf et al.
# Submitted via: CDex 1.51
#
DISCID=8412771d
DTITLE=Various Artist - The Sound Stage 7 Story CD1: Deep Soul Survey
DYEAR=2005
DGENRE=R&B - Soul
TTITLE0=John R - Mojo Blues
TTITLE1=Roscoe Shelton - I Know Your Heart Has Been Broken
TTITLE2=Little Richie - I Wish I Was A Baby
TTITLE3=Gwen Davis - I Can't Be Your Part-Time Baby
TTITLE4=Jimmy Church - Right On Time
TTITLE5=Lattimore Brown - I Know I'm Gonna Miss You
TTITLE6=Roscoe Shelton - Easy Goin' Fellow
TTITLE7=Joe Simon - Teenager's Prayer
TTITLE8=Sam Baker - Something Tells Me
TTITLE9=Allen Orange - V. C. Blues
TTITLE10=The Ambassadors - There's Something On My Baby's Mind
TTITLE11=Roscoe Robinson - Why Are You Afraid
TTITLE12=Ella Washington - I Can't Afford To Lose Him
TTITLE13=Joe Simon - You Keep Me Hangin' On
TTITLE14=Sam Baker - Sunny
TTITLE15=Ted Ford - Please Give Me Another Chance
TTITLE16=Lattimore Brown - Otis Is Gone [Part 1]
TTITLE17=The Soul Ambassadors - Just Like She Said She Would
TTITLE18=Ella Washington - He Called Me Baby
TTITLE19=Margie Hendrix - Don't Destroy Me
TTITLE20=Roscoe Robinson - I'm Burning And Yearning (For You)
TTITLE21=Joe Simon - The Chokin' Kind
TTITLE22=Sam Baker - It's All Over
TTITLE23=Fenton Robinson - The Getaway
TTITLE24=Piney Brown - Nashville Wimmin
TTITLE25=Chuck Armstrong - How Sweet It Is
TTITLE26=Moody Scott - I'll Find My Sunshine
TTITLE27=The Valentines - Gotta Get Yourself Together
TTITLE28=Fenton Robinson - Little Turch
EXTD=CD 1 von 3 in der CD-Box "The Sound Stage 7 Story" von CHARLY YEAR: 2005
EXTT0=
EXTT1=
EXTT2=
EXTT3=
EXTT4=
EXTT5=
EXTT6=
EXTT7=
EXTT8=
EXTT9=
EXTT10=
EXTT11=
EXTT12=
EXTT13=
EXTT14=
EXTT15=
EXTT16=
EXTT17=
EXTT18=
EXTT19=
EXTT20=
EXTT21=
EXTT22=
EXTT23=
EXTT24=
EXTT25=
EXTT26=
EXTT27=
EXTT28=
PLAYORDER=
